<svg xmlns="http://www.w3.org/2000/svg" viewBox="0 0 522.42 304.2"><defs><style>.cls-1{fill:#231f20;}</style></defs><title>Asset 5</title><g id="Layer_2" data-name="Layer 2"><g id="Layer_1-2" data-name="Layer 1"><path class="cls-1" d="M0,302.68V194.22H45.22a29.38,29.38,0,0,1,13.21,3,33.26,33.26,0,0,1,10.39,7.94,38,38,0,0,1,6.79,11.15,34.06,34.06,0,0,1,2.45,12.6,37.69,37.69,0,0,1-2.29,13A36,36,0,0,1,69.28,253a31.61,31.61,0,0,1-10.09,7.79,29,29,0,0,1-13.06,2.9H13.75v39ZM13.75,251.5H45.37a16.7,16.7,0,0,0,7.71-1.75A17.47,17.47,0,0,0,59,244.86a23.92,23.92,0,0,0,3.82-7.26,27.26,27.26,0,0,0,1.38-8.71,24.46,24.46,0,0,0-5.88-16A18.9,18.9,0,0,0,52,208.12a17.6,17.6,0,0,0-7.56-1.68H13.75Z"/><path class="cls-1" d="M134,304.2a32.26,32.26,0,0,1-17-4.58,34.68,34.68,0,0,1-12.07-11.91v15H93V191.16h13.44v47.66a41.52,41.52,0,0,1,12.37-12.52,33.12,33.12,0,0,1,31.93-1.22A36.52,36.52,0,0,1,162,234.32a42.11,42.11,0,0,1,7.18,13.29,48.72,48.72,0,0,1,2.52,15.5A43.47,43.47,0,0,1,168.79,279a41.72,41.72,0,0,1-7.94,13.06,37.69,37.69,0,0,1-12,8.86A34.45,34.45,0,0,1,134,304.2Zm-3.36-11.61a24.84,24.84,0,0,0,11-2.44,27.67,27.67,0,0,0,8.71-6.57,29.87,29.87,0,0,0,5.65-9.39,31.29,31.29,0,0,0,2-11.08A33.67,33.67,0,0,0,156,251.88a30.87,30.87,0,0,0-5.35-9.54,26.8,26.8,0,0,0-8.25-6.65,22.51,22.51,0,0,0-10.61-2.52,21.53,21.53,0,0,0-8.1,1.53,29.77,29.77,0,0,0-7.1,4.05,30.25,30.25,0,0,0-5.81,5.88,42.5,42.5,0,0,0-4.35,7.18v23.06a16.49,16.49,0,0,0,3.28,7,27.06,27.06,0,0,0,6,5.58,31.3,31.3,0,0,0,7.33,3.74A22.59,22.59,0,0,0,130.6,292.59Z"/><path class="cls-1" d="M223.48,304.2a40.61,40.61,0,0,1-16.5-3.28A39,39,0,0,1,194.15,292a40.64,40.64,0,0,1-8.33-13.21,43.26,43.26,0,0,1-3-16,42.7,42.7,0,0,1,3-15.89,40.33,40.33,0,0,1,8.41-13.14,39.9,39.9,0,0,1,12.9-8.93,40.62,40.62,0,0,1,16.5-3.29,38.78,38.78,0,0,1,37,25.28,42.62,42.62,0,0,1,2.83,15.36c0,1.12,0,2.13-.08,3.05a14.65,14.65,0,0,1-.23,2.14H197.05a31,31,0,0,0,2.75,10.85,27.58,27.58,0,0,0,14.28,13.9,25,25,0,0,0,9.86,2,26.41,26.41,0,0,0,7.18-1,30.89,30.89,0,0,0,6.56-2.67,22.8,22.8,0,0,0,5.43-4.13,16.87,16.87,0,0,0,3.59-5.5L258.31,284a29.66,29.66,0,0,1-5.43,8.1,36.36,36.36,0,0,1-7.94,6.34,41.07,41.07,0,0,1-10,4.2A42.87,42.87,0,0,1,223.48,304.2Zm27.34-46.74A28.71,28.71,0,0,0,248,247a28.39,28.39,0,0,0-6-8.18,26.85,26.85,0,0,0-18.41-7.18,26.7,26.7,0,0,0-10.08,1.91,26.15,26.15,0,0,0-8.33,5.35,27,27,0,0,0-5.8,8.17,29.86,29.86,0,0,0-2.67,10.39Z"/><path class="cls-1" d="M347.67,302.68H334.22V258.07q0-12.82-3.89-18.63t-11.84-5.81a22.6,22.6,0,0,0-8.25,1.6,32.61,32.61,0,0,0-7.79,4.36,30.07,30.07,0,0,0-6.41,6.57,27.88,27.88,0,0,0-4.13,8.4v48.12H278.47V222.94h12.22v17.11a35,35,0,0,1,13.67-13.45,39,39,0,0,1,19.48-5,23.51,23.51,0,0,1,11.45,2.52,19.5,19.5,0,0,1,7.34,7,31.19,31.19,0,0,1,3.89,10.62A71.59,71.59,0,0,1,347.67,255Z"/><path class="cls-1" d="M363.25,262.65a43.42,43.42,0,0,1,2.9-15.88,38.91,38.91,0,0,1,8.25-13.06,39.69,39.69,0,0,1,12.75-8.86,40.49,40.49,0,0,1,16.58-3.29q11.91,0,20.54,5.27A34.3,34.3,0,0,1,437.33,241l-13.13,4.13a21.88,21.88,0,0,0-8.56-8.79,24.32,24.32,0,0,0-12.22-3.13,25,25,0,0,0-18.79,8.4,30.47,30.47,0,0,0-5.57,9.32,33.93,33.93,0,0,0,.07,23.53,31.45,31.45,0,0,0,5.73,9.54,26.09,26.09,0,0,0,8.4,6.34,23.66,23.66,0,0,0,10.31,2.29,24.94,24.94,0,0,0,6.95-1,26.61,26.61,0,0,0,6.27-2.67,23.49,23.49,0,0,0,5-3.9,13.17,13.17,0,0,0,3.06-4.81l13.13,4a28.19,28.19,0,0,1-5.11,8.1,32,32,0,0,1-7.72,6.26,42.06,42.06,0,0,1-21.23,5.65,39.8,39.8,0,0,1-29.33-12.37,40.72,40.72,0,0,1-8.32-13.21A43.07,43.07,0,0,1,363.25,262.65Z"/><path class="cls-1" d="M522.42,302.68H509V258.07q0-12.37-4.27-18.41t-12.53-6a21,21,0,0,0-7.94,1.6,29.27,29.27,0,0,0-7.41,4.36,31.22,31.22,0,0,0-6.11,6.57,29.16,29.16,0,0,0-4,8.4v48.12H453.22V191.16h13.44v48.89a35.11,35.11,0,0,1,12.83-13.6,33.66,33.66,0,0,1,17.72-4.89,25.15,25.15,0,0,1,11.92,2.6,20.75,20.75,0,0,1,7.79,7,30.85,30.85,0,0,1,4.2,10.61,64.71,64.71,0,0,1,1.3,13.22Z"/><path class="cls-1" d="M326.58,44.79a5.63,5.63,0,0,0-4.7,2.56C311.66,62,299.46,79.62,287.7,96.68h0l-.31.45-1.49,2.16-.63.91-1.44,2.09-.47.68-1.78,2.59-.27.39-1.63,2.37-.69,1-1.22,1.77-.6.87-1.66,2.43-.13.18-1.81,2.64c-.14.21-.29.42-.43.64-.48.69-.95,1.37-1.41,2.05l-.44.65-1.35,2-.47.69-1.63,2.38-.5.74-1.18,1.73-.55.8c-.41.6-.81,1.2-1.22,1.79l-.4.6-1.58,2.3-.31.47-1.23,1.8c-.16.25-.32.49-.49.73l-1,1.54-.48.7-1.42,2.1-.1.15-1.28,1.9-.43.63-.94,1.4c-.14.2-.28.41-.41.62l-1.18,1.75-.09.14-1.19,1.78-.38.56c-.27.42-.55.83-.82,1.23l-.36.54-.84,1.28c-.08.12-.17.25-.24.37l-1,1.52-.24.36-.71,1.09-.3.45q-.33.53-.66,1c-.06.1-.14.21-.2.32l-.79,1.21-.17.28-.54.84-.23.36-.45.72-.17.28c-.19.31-.38.6-.54.87a.75.75,0,0,0-.07.12l-.39.64-.12.22c-.1.16-.19.31-.27.46l-.1.17-.27.5A23.44,23.44,0,1,0,283.67,186c.05-.11.12-.23.18-.37l0-.1.19-.41,0-.06.23-.54a1,1,0,0,0,.07-.15l.22-.52.06-.13.29-.7.07-.18c.09-.21.18-.42.27-.65l.07-.18.35-.85.08-.2.3-.77a2.6,2.6,0,0,0,.1-.25c.13-.33.27-.67.4-1l0-.08c.13-.33.26-.67.4-1l.11-.29c.3-.76.6-1.56.92-2.4l.13-.32.43-1.14.07-.17c.16-.44.34-.89.51-1.35,0-.12.09-.24.14-.37l.43-1.14.12-.32c.18-.48.36-1,.55-1.46,0-.1.07-.21.11-.31l.48-1.28.15-.4c.2-.52.39-1,.59-1.59l.08-.19c.17-.48.36-1,.54-1.46l.16-.44c.2-.54.4-1.09.61-1.64l.13-.36c.18-.49.36-1,.55-1.48l.15-.43c.2-.52.39-1,.58-1.57,0-.13.1-.25.14-.38.21-.58.43-1.16.65-1.75l.14-.4c.21-.57.42-1.15.64-1.73l.08-.23c.24-.65.48-1.32.73-2l.13-.36c.2-.54.39-1.08.59-1.63l.19-.51c.24-.64.47-1.29.71-1.94l.18-.5c.2-.54.39-1.09.59-1.63l.2-.54c.24-.67.49-1.35.73-2,.06-.14.11-.29.16-.44q.32-.85.63-1.74l.21-.56c.51-1.43,1-2.87,1.57-4.33l.18-.53c.54-1.48,1.08-3,1.63-4.51l.17-.45c.56-1.57,1.13-3.14,1.7-4.73l.11-.31.78-2.18.12-.32,1.75-4.88.12-.35.83-2.31.22-.61.74-2.07.09-.25,1.74-4.87.26-.72.75-2.11.07-.18v-.05h0c6.33-17.74,12.7-35.71,18.09-51A5.87,5.87,0,0,0,326.58,44.79Z"/><path class="cls-1" d="M423.77,60.22a247.23,247.23,0,0,0-320-2.92l67.28,67.28a151.61,151.61,0,0,1,91-30q5.12,0,10.17.33C282.37,80.19,295,62,310.6,39.51a19.28,19.28,0,0,1,16-8.45,19.88,19.88,0,0,1,16.22,8.39,19.32,19.32,0,0,1,2.39,17.78C339.27,74,333,91.82,326.86,108.89a151.87,151.87,0,0,1,29.78,18.45Z"/><path class="cls-1" d="M24.5,178.46H46.07a44.8,44.8,0,0,1,20,4.57,48.72,48.72,0,0,1,12.45,8.78v-1.05a15.35,15.35,0,0,1,15.35-15.35h13.45A15.35,15.35,0,0,1,122,186.21a152.31,152.31,0,0,1,29.67-44.46L84.81,74.89A247.13,247.13,0,0,0,24.5,178.46Z"/><path class="cls-1" d="M442.42,78.13,375.51,145A151.59,151.59,0,0,1,409.17,206a52.36,52.36,0,0,1,24,7.35,53.77,53.77,0,0,1,5.59,3.94v-26.5a15.36,15.36,0,0,1,15.36-15.35h13.44a15.35,15.35,0,0,1,15.35,15.35v17.38a49.7,49.7,0,0,1,15.2-2.34,46.88,46.88,0,0,1,7.9.65A246.52,246.52,0,0,0,442.42,78.13Z"/></g></g></svg>