<svg width="640" height="640" xmlns="http://www.w3.org/2000/svg" xmlns:xlink="http://www.w3.org/1999/xlink" preserveAspectRatio="xMidYMid meet">
 <defs>
  <path id="b1G283Xgtx" d="m210.88,501.25c-4.13,0.38 -7,-1.62 -7,-4.5c0,-2.5 2.87,-4.5 6.5,-4.5c3.75,-0.38 7,1.62 7,4.5c0,2.5 -2.88,4.5 -6.5,4.5zm-27,-4c3.25,1.25 7,0 7.75,-2.5c0.75,-2.5 -1.63,-5.38 -5.38,-6.5c-3.25,-0.87 -6.87,0.38 -7.75,2.88c-0.87,2.5 1.63,5.37 5.38,6.12zm44.12,-2.13c0.38,2.5 3.63,4.13 7.38,3.26c3.62,-0.88 6.12,-3.26 5.75,-5.76c-0.38,-2.37 -3.75,-3.99 -7.38,-3.62c-3.62,0.88 -6.12,3.25 -5.75,6.12zm-218,-180.12c0,138.63 87.25,257.25 211.88,299c16,2.88 21.62,-7 21.62,-15.12c0,-7.75 -0.37,-50.5 -0.37,-76.75c0,0 -87.5,18.75 -105.88,-37.25c0,0 -14.25,-36.38 -34.75,-45.76c0,0 -28.62,-19.62 2,-19.24c0,0 31.13,2.5 48.25,32.25c27.38,48.25 73.25,34.37 91.13,26.12c2.87,-20 11,-33.88 20,-42.12c-69.88,-7.75 -140.38,-17.88 -140.38,-138.13c0,-34.37 9.5,-51.63 29.5,-73.63c-3.25,-8.12 -13.87,-41.62 3.25,-84.87c26.13,-8.13 86.25,33.75 86.25,33.75c25,-7 51.88,-10.63 78.5,-10.63c26.63,0 53.5,3.63 78.5,10.63c0,0 60.13,-42 86.25,-33.75c17.13,43.37 6.5,76.75 3.25,84.87c20,22.13 32.25,39.38 32.25,73.63c0,120.63 -73.62,130.25 -143.5,138.13c11.5,9.87 21.25,28.62 21.25,57.99c0,42.13 -0.37,94.25 -0.37,104.51c0,8.12 5.75,18 21.62,15.12c125,-41.5 209.75,-160.12 209.75,-298.75c0,-173.37 -140.62,-305 -314,-305c-173.37,0 -306,131.63 -306,305zm122.38,132.62c2,2.01 4.87,2.88 6.5,1.25c1.62,-1.25 1.25,-4.12 -0.88,-6.49c-2,-2.01 -4.87,-2.88 -6.5,-1.25c-1.62,1.25 -1.25,4.12 0.88,6.49zm-11.5,-11.75c2,1.25 4.5,0.88 5.37,-0.87c0.88,-1.63 -0.37,-3.63 -2.87,-4.88c-2.5,-0.75 -4.5,-0.37 -5.38,0.88c-0.87,1.62 0.38,3.62 2.88,4.87zm39.25,47.38c2.87,2.88 6.5,3.25 8.12,1.25c1.63,-1.63 0.88,-5.38 -1.62,-7.75c-2.75,-2.88 -6.5,-3.25 -8.13,-1.25c-2,1.63 -1.25,5.38 1.63,7.75zm-15.88,-18.75c2,2.88 5.38,4.13 7,2.88c2,-1.63 2,-4.88 0,-7.75c-1.75,-2.88 -5,-4.13 -7,-2.5c-2,1.25 -2,4.5 0,7.37z"/>
 </defs>
 <g>
  <title>background</title>
  <rect fill="none" id="canvas_background" height="402" width="582" y="-1" x="-1"/>
 </g>
 <g>
  <title>Layer 1</title>
  <g id="svg_1">
   <g id="svg_2">
    <g id="svg_3">
     <use id="svg_4" fill="#1bc1c9" xlink:href="#b1G283Xgtx"/>
     <g id="svg_5">
      <use fill="#1bc1c9" id="svg_6" stroke-opacity="0" stroke="#000000" fill-opacity="0" xlink:href="#b1G283Xgtx"/>
     </g>
    </g>
   </g>
  </g>
 </g>
</svg>