<?xml version="1.0" encoding="UTF-8"?>
<svg width="627px" height="225px" viewBox="0 0 627 225" version="1.1" xmlns="http://www.w3.org/2000/svg" xmlns:xlink="http://www.w3.org/1999/xlink">
    <!-- Generator: Sketch 63.1 (92452) - https://sketch.com -->
    <title>Group 2</title>
    <desc>Created with Sketch.</desc>
    <defs>
        <rect id="path-1" x="0.735276453" y="0.422193587" width="724.691892" height="266.692683"></rect>
    </defs>
    <g id="Homepage" stroke="none" stroke-width="1" fill="none" fill-rule="evenodd">
        <g id="Group-2" transform="translate(-98.000000, -43.000000)">
            <g id="hero" transform="translate(363.000000, 134.000000) rotate(-180.000000) translate(-363.000000, -134.000000) ">
                <mask id="mask-2" fill="white">
                    <use xlink:href="#path-1"></use>
                </mask>
                <g id="Mask"></g>
                <g mask="url(#mask-2)" fill="#FFFFFF" id="Path">
                    <g transform="translate(-9.729588, -61.021709)">
                        <path d="M354.134465,20.7836268 C351.577509,20.7922406 349.197131,22.0737827 347.802911,24.1924003 C334.035509,43.7002744 317.600847,67.1629908 301.758914,89.8800157 L301.758914,89.8800157 L301.341312,90.4792338 L299.334128,93.3554808 L298.485453,94.5672329 L296.545625,97.3502682 L295.912486,98.2557533 L293.514643,101.704587 L293.150925,102.223909 L290.955147,105.379791 L290.025645,106.711387 L288.38218,109.068312 L287.573918,110.2268 L285.337727,113.462579 L285.162604,113.702266 L282.724347,117.217679 C282.535753,117.497314 282.333687,117.776949 282.145094,118.069901 C281.498484,118.988702 280.865345,119.894187 280.245678,120.799672 L279.652953,121.66521 L277.834366,124.328403 L277.201228,125.247204 L275.00545,128.416403 L274.331899,129.401784 L272.742318,131.705445 L272.001411,132.770722 C271.449099,133.56968 270.910259,134.368638 270.357946,135.154279 L269.819106,135.953237 L267.690683,139.015908 L267.273082,139.641758 L265.616146,142.038631 C265.40061,142.371531 265.185074,142.691114 264.956066,143.010697 L263.608966,145.061357 L262.962357,145.993474 L261.049472,148.789826 L260.914762,148.989566 L259.190471,151.519599 L258.611217,152.358505 L257.344942,154.22274 C257.156347,154.489059 256.967753,154.768694 256.79263,155.04833 L255.20305,157.378624 L255.081811,157.565048 L253.478761,159.93529 L252.966862,160.680983 C252.603145,161.240255 252.225956,161.786209 251.862239,162.318847 L251.377282,163.03791 L250.245718,164.742354 C250.13795,164.902146 250.016711,165.075253 249.922414,165.235045 L248.575314,167.259073 L248.252009,167.738448 L247.295569,169.189889 L246.891438,169.789107 C246.595077,170.259605 246.298715,170.703471 246.002352,171.120704 C245.921526,171.253864 245.813758,171.40034 245.732932,171.546816 L244.668723,173.158048 L244.439717,173.530896 L243.712284,174.649438 L243.402451,175.128814 L242.796257,176.087564 L242.567251,176.460412 C242.311303,176.873208 242.055354,177.259371 241.839819,177.618903 C241.803453,177.669168 241.771885,177.722662 241.745522,177.778695 L241.220155,178.630918 L241.058504,178.923871 C240.923795,179.136926 240.802556,179.336666 240.694789,179.536407 L240.56008,179.762779 L240.196366,180.42858 C234.295616,190.416175 234.466186,202.81065 240.639605,212.636608 C246.813024,222.462566 257.97707,228.108897 269.650267,227.30905 C281.323465,226.509203 291.591822,219.394324 296.33341,208.82047 C296.400764,208.673993 296.49506,208.514201 296.575884,208.327777 L296.57588,208.194614 L296.831824,207.648656 L296.831822,207.568759 L297.141648,206.849691 C297.17861,206.785802 297.21015,206.718993 297.235943,206.649951 L297.532298,205.957515 L297.613122,205.784407 L298.003771,204.852282 L298.098065,204.612592 C298.219301,204.332955 298.340537,204.053318 298.461773,203.747048 L298.556067,203.507358 L299.027539,202.375492 L299.135304,202.109171 L299.539422,201.083833 C299.590111,200.97524 299.635073,200.864124 299.674128,200.750931 C299.849246,200.3115 300.037835,199.858754 300.212952,199.419324 L300.212949,199.312794 C300.388067,198.873363 300.563184,198.420616 300.751774,197.981186 L300.89995,197.59502 C301.304068,196.582998 301.708184,195.517711 302.139242,194.39916 L302.314361,193.973046 L302.893595,192.455012 L302.987889,192.228639 C303.203417,191.642731 303.445888,191.043508 303.674887,190.430968 C303.674883,190.271173 303.796122,190.111382 303.863475,189.938273 L304.442709,188.420239 L304.604356,187.994125 C304.846825,187.354952 305.089294,186.662515 305.345236,186.049976 C305.345232,185.916814 305.439529,185.770338 305.493411,185.637177 L306.139998,183.932719 L306.342056,183.400075 C306.611467,182.707639 306.867409,182.068467 307.136817,181.282817 L307.244583,181.029812 C307.473581,180.39064 307.729521,179.698203 307.971992,179.085663 L308.18752,178.499756 C308.456931,177.780687 308.726341,177.048302 309.009223,176.315917 L309.184339,175.836538 C309.426809,175.18405 309.669277,174.504929 309.925219,173.865757 L310.127276,173.293165 C310.396687,172.600729 310.652629,171.961557 310.908567,171.20254 C310.908562,171.029429 311.043273,170.869638 311.097154,170.696528 C311.380035,169.924195 311.676387,169.151862 311.972739,168.366213 L312.161326,167.833569 C312.444207,167.074552 312.727088,166.302219 313.02344,165.529886 L313.131204,165.223616 C313.454496,164.358071 313.777788,163.465892 314.114552,162.560398 L314.289668,162.081019 C314.559079,161.361951 314.815018,160.642881 315.084428,159.910497 L315.340368,159.231376 C315.663662,158.379147 315.973483,157.513601 316.296775,156.648055 L316.539245,155.98225 C316.808655,155.263182 317.064594,154.530797 317.334005,153.811728 L317.603415,153.092659 C317.926707,152.200481 318.26347,151.294987 318.586763,150.429441 C318.667587,150.243017 318.734939,150.043275 318.802291,149.843533 C319.089663,149.088955 319.372544,148.316622 319.650934,147.526534 L319.933815,146.780833 C320.62081,144.876632 321.280862,142.959114 322.048685,141.014966 L322.291153,140.309213 C323.018561,138.338432 323.745968,136.314386 324.486846,134.303656 L324.715846,133.704432 C325.470193,131.613806 326.238012,129.52318 327.005831,127.405921 L327.154006,126.993123 L328.204705,124.090215 L328.366352,123.6641 L330.723689,117.165847 L330.885334,116.699784 L332.003386,113.623767 L332.299737,112.811485 L333.296554,110.055054 L333.417788,109.722152 L335.761654,103.237215 L336.111888,102.278457 L337.122174,99.4687612 L337.216468,99.2290718 L337.216466,99.1624906 L337.216466,99.1624906 C345.743289,75.5397433 354.323989,51.6107241 361.584578,31.2504167 C362.458274,28.8536472 362.09546,26.1863141 360.612326,24.1026354 C359.129192,22.0189568 356.711853,20.7804067 354.134465,20.7836268 Z" fill-opacity="0.8" transform="translate(298.970042, 124.083831) rotate(-182.000000) translate(-298.970042, -124.083831) "></path>
                        <path d="M545.222032,195.39718 C422.869976,88.6998741 241.899988,87.0292985 117.643778,191.450106 L207.54479,282.103524 C242.675768,255.730664 285.337631,241.549731 329.136115,241.686197 C333.696948,241.686333 338.226609,241.834679 342.725096,242.131233 C356.286747,222.298422 373.161989,197.790352 394.005518,167.48873 C398.813352,160.348064 406.824584,156.081891 415.384084,156.104132 C423.998818,156.105816 432.078039,160.320049 437.057289,167.409174 C441.957055,174.382044 443.150876,183.335638 440.251479,191.365423 C432.315235,213.960501 423.938094,237.9703 415.734626,260.969579 C429.905198,267.680792 443.25809,276.02297 455.526859,285.829656 L545.222032,195.39718 Z" fill-opacity="0.4" transform="translate(331.432905, 200.034997) rotate(-182.000000) translate(-331.432905, -200.034997) "></path>
                        <path d="M477.000261,159.934601 L505.831471,159.935462 C515.094897,159.876207 524.245771,161.984824 532.564349,166.095463 C538.692553,169.135761 544.308345,173.129143 549.205805,177.929178 L549.205762,176.514043 C549.205421,165.088424 558.391071,155.826404 569.722486,155.826742 L587.700223,155.827279 C596.698741,155.815817 604.654888,161.717881 607.322455,170.383531 C616.934763,148.209234 630.360172,127.923718 646.978616,110.46389 L557.608528,20.350867 C519.786993,59.5041886 492.103517,107.44174 477.000261,159.934601 L477.000261,159.934601 Z" fill-opacity="0.4" transform="translate(561.989438, 99.140022) rotate(-182.000000) translate(-561.989438, -99.140022) "></path>
                        <path d="M93.3472328,3.50176701 L3.50229469,93.5224619 C24.7245354,117.007314 40.200414,145.123926 48.7038396,175.644733 C60.0876889,176.274965 71.1480748,179.671163 80.9316511,185.540593 C83.5435396,187.147259 86.050771,188.918984 88.4381352,190.845021 L88.437069,155.169539 C88.4441406,143.754478 97.6760936,134.504958 109.062062,134.5053 L127.10947,134.505839 C138.493264,134.506179 147.721929,143.758425 147.72227,155.171309 L147.722969,178.569041 C154.322249,176.463801 161.208225,175.401215 168.133635,175.419438 C171.688009,175.410457 175.236775,175.703296 178.741885,176.294813 C167.962525,111.494126 138.242841,51.3574006 93.3472328,3.50176701 Z" fill-opacity="0.4" transform="translate(91.122090, 97.173394) rotate(-182.000000) translate(-91.122090, -97.173394) "></path>
                    </g>
                </g>
            </g>
        </g>
    </g>
</svg>