<svg width="640" height="640" xmlns="http://www.w3.org/2000/svg" xmlns:xlink="http://www.w3.org/1999/xlink" preserveAspectRatio="xMidYMid meet">
 <defs>
  <path id="azi2MyHD6" d="m640,237.46c0,25.56 0,230.06 0,255.62c0,33.13 -26.87,60 -60,60c-52,0 -468,0 -520,0c-33.12,0 -60,-26.87 -60,-60c0,-25.55 0,-229.95 0,-255.5c0,-6.25 7.13,-9.75 12.13,-5.87c27.99,21.75 65.12,49.37 192.62,142c26.37,19.25 70.88,59.75 115.25,59.5c44.63,0.37 90,-41 115.38,-59.5c127.5,-92.63 164.5,-120.38 192.5,-142.13c4.87,-3.87 12.12,-0.25 12.12,5.88zm-228.25,103.87c165.88,-120.37 178.5,-130.87 216.75,-160.87c7.25,-5.63 11.5,-14.38 11.5,-23.63c0,-2.37 0,-21.37 0,-23.75c0,-33.12 -26.88,-60 -60,-60c-52,0 -468,0 -520,0c-33.12,0 -60,26.88 -60,60c0,2.38 0,21.38 0,23.75c0,9.25 4.25,17.88 11.5,23.63c38.25,29.87 50.88,40.5 216.75,160.87c21,15.25 62.75,52.25 91.75,51.75c29,0.5 70.75,-36.5 91.75,-51.75z"/>
 </defs>
 <g>
  <title>background</title>
  <rect fill="none" id="canvas_background" height="402" width="582" y="-1" x="-1"/>
 </g>
 <g>
  <title>Layer 1</title>
  <g id="svg_1">
   <g id="svg_2">
    <g id="svg_3">
     <use id="svg_4" fill="#1bc1c9" xlink:href="#azi2MyHD6"/>
     <g id="svg_5">
      <use fill="#1bc1c9" id="svg_6" stroke-opacity="0" stroke="#000000" fill-opacity="0" xlink:href="#azi2MyHD6"/>
     </g>
    </g>
   </g>
  </g>
 </g>
</svg>