<?xml version="1.0" encoding="UTF-8" standalone="no"?>
<!-- Created with Inkscape (http://www.inkscape.org/) -->

<svg
   width="530"
   height="530"
   viewBox="0 0 140.22916 140.22917"
   version="1.1"
   id="svg21"
   inkscape:version="1.1.2 (0a00cf5339, 2022-02-04)"
   sodipodi:docname="square.svg"
   xmlns:inkscape="http://www.inkscape.org/namespaces/inkscape"
   xmlns:sodipodi="http://sodipodi.sourceforge.net/DTD/sodipodi-0.dtd"
   xmlns="http://www.w3.org/2000/svg"
   xmlns:svg="http://www.w3.org/2000/svg">
  <sodipodi:namedview
     id="namedview23"
     pagecolor="#ffffff"
     bordercolor="#666666"
     borderopacity="1.0"
     inkscape:pageshadow="2"
     inkscape:pageopacity="0.0"
     inkscape:pagecheckerboard="0"
     inkscape:document-units="mm"
     showgrid="false"
     inkscape:zoom="0.64"
     inkscape:cx="343.75"
     inkscape:cy="339.84375"
     inkscape:window-width="1920"
     inkscape:window-height="1011"
     inkscape:window-x="0"
     inkscape:window-y="1112"
     inkscape:window-maximized="1"
     inkscape:current-layer="layer1"
     units="px" />
  <defs
     id="defs18" />
  <g
     inkscape:label="Layer 1"
     inkscape:groupmode="layer"
     id="layer1">
    <rect
       style="fill:none;stroke-width:0.338797"
       id="rect47"
       width="137.33876"
       height="138.15802"
       x="1.472024"
       y="1.2480626"
       inkscape:label="square" />
    <g
       id="g45">
      <path
         class="cls-1"
         d="M 6.0365251,106.50893 V 80.064699 H 17.061858 a 7.1632698,7.1632698 0 0 1 3.22075,0.731402 8.1092703,8.1092703 0 0 1 2.533212,1.935899 9.2649516,9.2649516 0 0 1 1.655481,2.718531 8.3043216,8.3043216 0 0 1 0.59741,3.072097 9.1893684,9.1893684 0 0 1 -0.558336,3.169607 8.7773218,8.7773218 0 0 1 -1.582406,2.703882 7.7069765,7.7069765 0 0 1 -2.460046,1.899307 7.0706205,7.0706205 0 0 1 -3.184258,0.707074 H 9.388959 v 9.508842 z M 9.388959,94.030367 h 7.709393 a 4.0717021,4.0717021 0 0 0 1.879869,-0.42665 4.2594392,4.2594392 0 0 0 1.443349,-1.192244 5.8320429,5.8320429 0 0 0 0.931363,-1.77012 6.6463833,6.6463833 0 0 0 0.336443,-2.123609 5.9637026,5.9637026 0 0 0 -1.433583,-3.901085 4.6080939,4.6080939 0 0 0 -1.54094,-1.162936 4.2911351,4.2911351 0 0 0 -1.843192,-0.409622 H 9.388959 Z"
         id="path8"
         style="display:inline;fill:#1bc1c9;stroke-width:0.243815" />
      <path
         class="cls-1"
         d="m 38.707705,106.8795 a 7.8654557,7.8654557 0 0 1 -4.144926,-1.11665 8.4554868,8.4554868 0 0 1 -2.942819,-2.90392 v 3.65728 H 28.711233 V 79.318569 h 3.276866 v 11.620245 a 10.12318,10.12318 0 0 1 3.01599,-3.052564 8.0751362,8.0751362 0 0 1 7.785045,-0.29747 8.9041055,8.9041055 0 0 1 2.745343,2.252891 10.267028,10.267028 0 0 1 1.750582,3.240284 11.878644,11.878644 0 0 1 0.61446,3.779094 10.598617,10.598617 0 0 1 -0.709557,3.874171 10.171941,10.171941 0 0 1 -1.935897,3.18428 9.1893684,9.1893684 0 0 1 -2.925774,2.16026 8.3994096,8.3994096 0 0 1 -3.620586,0.79974 z m -0.819219,-2.83082 a 6.0563522,6.0563522 0 0 0 2.681946,-0.59483 6.7463471,6.7463471 0 0 0 2.123604,-1.60194 7.2827393,7.2827393 0 0 0 1.377555,-2.289377 7.6289558,7.6289558 0 0 0 0.48766,-2.701484 8.2092339,8.2092339 0 0 0 -0.48766,-2.738075 7.5265537,7.5265537 0 0 0 -1.304386,-2.325968 6.5342285,6.5342285 0 0 0 -2.011458,-1.621378 5.4882645,5.4882645 0 0 0 -2.586939,-0.61437 5.2493262,5.2493262 0 0 0 -1.974875,0.373032 7.2583573,7.2583573 0 0 0 -1.731045,0.987477 7.3753886,7.3753886 0 0 0 -1.416626,1.433584 10.362117,10.362117 0 0 0 -1.060557,1.750586 v 5.622366 a 4.0205009,4.0205009 0 0 0 0.799679,1.706727 6.5976203,6.5976203 0 0 0 1.462886,1.36052 7.6313938,7.6313938 0 0 0 1.787165,0.91182 5.5077695,5.5077695 0 0 0 1.843285,0.34131 z"
         id="path10"
         style="display:inline;fill:#1bc1c9;stroke-width:0.243815" />
      <path
         class="cls-1"
         d="m 60.524209,106.8795 a 9.9013067,9.9013067 0 0 1 -4.022914,-0.79974 9.5087654,9.5087654 0 0 1 -3.128137,-2.17492 9.9086215,9.9086215 0 0 1 -2.030996,-3.22074 10.547416,10.547416 0 0 1 -0.731487,-3.901019 10.41088,10.41088 0 0 1 0.731487,-3.874271 9.8330384,9.8330384 0 0 1 2.050438,-3.203703 9.728199,9.728199 0 0 1 3.145184,-2.177237 9.903745,9.903745 0 0 1 4.02301,-0.802176 9.4551273,9.4551273 0 0 1 9.021151,6.163668 10.391375,10.391375 0 0 1 0.68993,3.744998 c 0,0.273035 0,0.519253 -0.01935,0.743559 a 3.5718824,3.5718824 0 0 1 -0.05622,0.521751 h -16.11617 a 7.5582494,7.5582494 0 0 0 0.670488,2.64545 6.7244037,6.7244037 0 0 0 3.481716,3.38903 6.0953625,6.0953625 0 0 0 2.40402,0.48756 6.4391409,6.4391409 0 0 0 1.75058,-0.24374 7.53143,7.53143 0 0 0 1.599454,-0.65104 5.5589705,5.5589705 0 0 0 1.323923,-1.00691 4.1131508,4.1131508 0 0 0 0.875245,-1.34099 l 2.830673,0.77536 a 7.231538,7.231538 0 0 1 -1.323922,1.97487 8.8650952,8.8650952 0 0 1 -1.935896,1.54579 10.013461,10.013461 0 0 1 -2.438113,1.02412 10.452327,10.452327 0 0 1 -2.794094,0.38033 z M 67.19009,95.483483 a 6.9999142,6.9999142 0 0 0 -0.687534,-2.550259 6.9218935,6.9218935 0 0 0 -1.462887,-1.99441 6.5464194,6.5464194 0 0 0 -4.488643,-1.750577 6.509847,6.509847 0 0 0 -2.45765,0.46564 6.3757494,6.3757494 0 0 0 -2.030993,1.30448 6.5829915,6.5829915 0 0 0 -1.414142,1.991916 7.2803007,7.2803007 0 0 0 -0.650949,2.53321 z"
         id="path12"
         style="display:inline;fill:#1bc1c9;stroke-width:0.243815" />
      <path
         class="cls-1"
         d="M 90.803533,106.50893 H 87.524174 V 95.632223 q 0,-3.125648 -0.948412,-4.542279 -0.948411,-1.416536 -2.886795,-1.416536 a 5.5102079,5.5102079 0 0 0 -2.011459,0.390069 7.9507908,7.9507908 0 0 0 -1.899308,1.063047 7.331502,7.331502 0 0 0 -1.562872,1.601847 6.7975481,6.7975481 0 0 0 -1.006925,2.048049 v 11.73251 H 73.931534 V 87.067027 h 2.979406 v 4.171648 a 8.5335074,8.5335074 0 0 1 3.332986,-3.279273 9.5087654,9.5087654 0 0 1 4.749522,-1.219049 5.7320788,5.7320788 0 0 1 2.791597,0.61436 4.7543827,4.7543827 0 0 1 1.789662,1.706725 7.604574,7.604574 0 0 1 0.948412,2.589323 17.45468,17.45468 0 0 1 0.280414,3.232917 z"
         id="path14"
         style="display:inline;fill:#1bc1c9;stroke-width:0.243815" />
      <path
         class="cls-1"
         d="m 94.602149,96.748898 a 10.586425,10.586425 0 0 1 0.707073,-3.871787 9.4868215,9.4868215 0 0 1 2.011448,-3.18417 9.6769977,9.6769977 0 0 1 3.10862,-2.160179 9.8720486,9.8720486 0 0 1 4.04248,-0.802165 q 2.90384,0 5.008,1.284843 a 8.3628374,8.3628374 0 0 1 3.18418,3.454903 l -3.20133,1.006924 a 5.3346612,5.3346612 0 0 0 -2.08701,-2.143142 5.9295685,5.9295685 0 0 0 -2.9794,-0.763101 6.0953625,6.0953625 0 0 0 -4.581297,2.048049 7.4290277,7.4290277 0 0 0 -1.358025,2.27233 8.2726259,8.2726259 0 0 0 0.01755,5.73693 7.6679659,7.6679659 0 0 0 1.397015,2.326057 6.3611204,6.3611204 0 0 0 2.048047,1.54572 5.7686511,5.7686511 0 0 0 2.51379,0.55834 6.0807337,6.0807337 0 0 0 1.69447,-0.24382 6.4879039,6.4879039 0 0 0 1.52878,-0.65096 5.7272024,5.7272024 0 0 0 1.21903,-0.9509 3.2110368,3.2110368 0 0 0 0.74606,-1.1727 l 3.20132,0.97523 a 6.8731307,6.8731307 0 0 1 -1.24588,1.97487 7.8020638,7.8020638 0 0 1 -1.88226,1.52635 10.254839,10.254839 0 0 1 -5.17618,1.37763 9.7038168,9.7038168 0 0 1 -7.151091,-3.01613 9.9281266,9.9281266 0 0 1 -2.028603,-3.22075 10.50109,10.50109 0 0 1 -0.736276,-3.908372 z"
         id="path16"
         style="display:inline;fill:#1bc1c9;stroke-width:0.243815" />
      <path
         class="cls-1"
         d="m 133.41012,106.50893 h -3.27197 V 95.632223 q 0,-3.015992 -1.04112,-4.488651 -1.04104,-1.472561 -3.05498,-1.462891 a 5.1201043,5.1201043 0 0 0 -1.9359,0.390175 7.1364504,7.1364504 0 0 0 -1.8066,1.063037 7.6118887,7.6118887 0 0 0 -1.4897,1.601855 7.1096307,7.1096307 0 0 0 -0.97532,2.048049 v 11.732413 h -3.29631 V 79.318569 h 3.27686 v 11.920106 a 8.5603271,8.5603271 0 0 1 3.12814,-3.315854 8.206796,8.206796 0 0 1 4.32037,-1.192224 6.1319347,6.1319347 0 0 1 2.90624,0.633893 5.0591509,5.0591509 0 0 1 1.89931,1.706714 7.5216773,7.5216773 0 0 1 1.02406,2.586849 15.777236,15.777236 0 0 1 0.31692,3.223235 z"
         id="path18"
         style="display:inline;fill:#1bc1c9;stroke-width:0.243815" />
      <path
         class="cls-2"
         d="m 85.661447,43.631499 a 1.3726756,1.3726756 0 0 0 -1.145888,0.624135 c -2.491839,3.571931 -5.466363,7.867885 -8.33362,12.027377 v 0 l -0.07555,0.109742 -0.363255,0.526635 -0.153615,0.221806 -0.351092,0.509596 -0.114638,0.16578 -0.433935,0.631512 -0.06634,0.09507 -0.397352,0.577876 -0.168266,0.243736 -0.297463,0.431629 -0.146243,0.212039 -0.404722,0.592527 -0.03134,0.04423 -0.441308,0.643669 c -0.03409,0.0516 -0.07095,0.102399 -0.104866,0.156013 -0.117032,0.168262 -0.231666,0.334041 -0.343815,0.49981 l -0.107261,0.158507 -0.329162,0.487657 -0.114544,0.168177 -0.397444,0.580369 -0.121914,0.180333 -0.287694,0.421862 -0.134079,0.194991 c -0.09999,0.146342 -0.197478,0.292589 -0.297461,0.436426 l -0.09749,0.146342 -0.385281,0.560731 -0.07557,0.114626 -0.299855,0.438833 c -0.0387,0.06082 -0.07833,0.119509 -0.119521,0.178031 l -0.24383,0.375419 -0.11703,0.170748 -0.346209,0.511986 -0.02396,0.03684 -0.312113,0.463231 -0.104865,0.153625 -0.229178,0.341323 c -0.03409,0.04883 -0.0682,0.100046 -0.09999,0.151129 l -0.287694,0.42665 -0.02211,0.03406 -0.29009,0.433932 -0.09271,0.136575 c -0.06543,0.10239 -0.134079,0.20236 -0.199875,0.29985 l -0.08756,0.131683 -0.20476,0.312111 c -0.01935,0.02945 -0.04146,0.06082 -0.05897,0.09028 l -0.243833,0.370624 -0.05897,0.08749 -0.17315,0.265753 -0.0728,0.109762 q -0.08016,0.129189 -0.160894,0.243728 c -0.01476,0.02493 -0.03409,0.05161 -0.04884,0.07829 l -0.192592,0.295064 -0.04146,0.06822 -0.131683,0.204853 -0.05623,0.08749 -0.109748,0.175545 -0.04147,0.06822 c -0.04606,0.0756 -0.09262,0.146332 -0.131591,0.212135 a 0.18286089,0.18286089 0 0 0 -0.0175,0.02944 l -0.09509,0.156012 -0.02949,0.05343 c -0.02396,0.03866 -0.04606,0.0755 -0.06543,0.11215 l -0.02396,0.04144 -0.06543,0.121916 a 5.7150121,5.7150121 0 1 0 10.159763,5.198113 c 0.01198,-0.02667 0.02949,-0.05623 0.04425,-0.09028 v -0.02399 l 0.04606,-0.09995 v -0.01477 l 0.05623,-0.131672 a 0.2438145,0.2438145 0 0 0 0.0175,-0.03685 l 0.05344,-0.126799 0.01476,-0.03128 0.07096,-0.170661 0.0175,-0.04424 c 0.02212,-0.05066 0.04425,-0.102399 0.06543,-0.158496 l 0.0175,-0.04424 0.08571,-0.207252 0.01935,-0.04883 0.0728,-0.187711 a 0.63391767,0.63391767 0 0 0 0.02396,-0.06082 c 0.03134,-0.0801 0.06634,-0.163293 0.0976,-0.243822 v -0.01938 c 0.03134,-0.08011 0.06359,-0.163391 0.0975,-0.243833 l 0.02673,-0.07091 c 0.0728,-0.185321 0.146245,-0.380409 0.224297,-0.585157 l 0.03133,-0.07828 0.104867,-0.277929 0.0175,-0.04144 c 0.03871,-0.107268 0.08293,-0.217029 0.124311,-0.329159 0,-0.02945 0.02212,-0.05899 0.03409,-0.09028 l 0.104776,-0.277919 0.02949,-0.07828 c 0.04425,-0.117024 0.08753,-0.243833 0.134079,-0.355974 0,-0.02399 0.0175,-0.05065 0.02672,-0.0755 l 0.117031,-0.312122 0.03687,-0.09746 c 0.04884,-0.126789 0.09509,-0.243823 0.143848,-0.38767 l 0.01935,-0.04604 c 0.04146,-0.117033 0.08755,-0.243739 0.131683,-0.355888 l 0.0387,-0.107343 c 0.04884,-0.131597 0.09751,-0.265764 0.14873,-0.399855 l 0.03134,-0.08749 c 0.04425,-0.119508 0.08754,-0.243823 0.134077,-0.360847 l 0.03687,-0.104868 c 0.04884,-0.1268 0.09509,-0.243833 0.141357,-0.382797 0,-0.03128 0.02397,-0.06082 0.03409,-0.09267 0.05068,-0.141459 0.104868,-0.282812 0.1585,-0.426659 l 0.03409,-0.09759 c 0.0516,-0.138964 0.10238,-0.280318 0.156012,-0.421777 l 0.01935,-0.05623 c 0.05897,-0.15841 0.117031,-0.321791 0.178035,-0.48757 l 0.03133,-0.08749 c 0.04884,-0.131683 0.09509,-0.263279 0.143939,-0.397351 l 0.04606,-0.124401 c 0.05897,-0.156013 0.114634,-0.31451 0.17315,-0.473008 l 0.04424,-0.121916 c 0.04884,-0.131596 0.09509,-0.265763 0.143848,-0.39735 l 0.04884,-0.131683 c 0.05804,-0.163381 0.119521,-0.329169 0.178036,-0.487656 0.01477,-0.03406 0.02672,-0.07099 0.03871,-0.107268 q 0.07833,-0.207251 0.153615,-0.42427 l 0.05159,-0.13646 c 0.124311,-0.348702 0.243739,-0.699801 0.382701,-1.055765 l 0.04425,-0.129208 c 0.131591,-0.360857 0.263274,-0.73149 0.397353,-1.099628 l 0.04146,-0.109655 c 0.13657,-0.382797 0.275533,-0.765586 0.414495,-1.153266 l 0.02671,-0.0755 0.190198,-0.531527 0.02949,-0.07829 0.426748,-1.189855 0.02949,-0.08567 0.202363,-0.563225 0.05344,-0.148731 0.18043,-0.504618 0.02212,-0.06082 0.424261,-1.187362 0.06358,-0.175545 0.182826,-0.51448 0.01749,-0.04424 v -0.01199 0 c 1.543343,-4.325262 3.096434,-8.706638 4.410587,-12.434581 a 1.4311909,1.4311909 0 0 0 -1.34836,-1.916342 z"
         id="path20"
         style="display:inline;fill:#ff3f12;stroke-width:0.243815" />
      <path
         class="cls-3"
         d="M 109.35786,47.393539 A 60.27826,60.27826 0 0 0 31.33715,46.681583 l 16.403869,16.403862 a 36.964718,36.964718 0 0 1 22.187135,-7.314429 q 1.24827,0 2.479582,0.0801 c 2.474699,-3.588985 5.554087,-8.023899 9.357592,-13.507306 a 4.7007435,4.7007435 0 0 1 3.901002,-2.060204 4.8470322,4.8470322 0 0 1 3.954725,2.045553 4.7104959,4.7104959 0 0 1 0.582671,4.335029 c -1.448241,4.0888 -2.977014,8.433507 -4.474001,12.595484 a 37.028109,37.028109 0 0 1 7.260811,4.498302 z"
         id="path22"
         style="display:inline;fill:#a5a5a5;stroke-width:0.243815" />
      <path
         class="cls-4"
         d="m 12.009992,76.222124 h 5.259114 a 10.922889,10.922889 0 0 1 4.876229,1.114286 11.878644,11.878644 0 0 1 3.035526,2.140657 v -0.255998 a 3.7425527,3.7425527 0 0 1 3.742501,-3.742493 h 3.279355 a 3.7425527,3.7425527 0 0 1 3.579213,2.633185 37.135387,37.135387 0 0 1 7.233988,-10.840009 L 26.714426,50.970263 A 60.253876,60.253876 0 0 0 12.009992,76.222124 Z"
         id="path24"
         style="display:inline;fill:#d8d8d8;stroke-width:0.243815" />
      <path
         class="cls-5"
         d="M 113.90499,51.760273 97.591328,68.06415 a 36.95984,36.95984 0 0 1 8.206842,14.872703 12.766126,12.766126 0 0 1 5.85157,1.792051 13.109906,13.109906 0 0 1 1.36289,0.960567 v -6.461034 a 3.7449905,3.7449905 0 0 1 3.745,-3.742589 h 3.27685 a 3.7425527,3.7425527 0 0 1 3.7425,3.742589 v 4.23744 a 12.117581,12.117581 0 0 1 3.70603,-0.570496 11.430024,11.430024 0 0 1 1.92612,0.158496 60.105152,60.105152 0 0 0 -15.50414,-31.293604 z"
         id="path26"
         style="display:inline;fill:#686868;stroke-width:0.243815" />
    </g>
  </g>
</svg>
