<?xml version="1.0" encoding="UTF-8" standalone="no"?>
<!-- Created with Inkscape (http://www.inkscape.org/) -->

<svg
   width="530mm"
   height="530mm"
   viewBox="0 0 530 530"
   version="1.1"
   id="svg5"
   sodipodi:docname="full-color-circle.svg"
   inkscape:version="1.1.2 (0a00cf5339, 2022-02-04)"
   inkscape:export-filename="/home/vvijayra/tmp_home/pbench-logo/full-color-circle.png"
   inkscape:export-xdpi="96"
   inkscape:export-ydpi="96"
   xmlns:inkscape="http://www.inkscape.org/namespaces/inkscape"
   xmlns:sodipodi="http://sodipodi.sourceforge.net/DTD/sodipodi-0.dtd"
   xmlns="http://www.w3.org/2000/svg"
   xmlns:svg="http://www.w3.org/2000/svg">
  <sodipodi:namedview
     id="namedview7"
     pagecolor="#ffffff"
     bordercolor="#666666"
     borderopacity="1.0"
     inkscape:pageshadow="2"
     inkscape:pageopacity="0.0"
     inkscape:pagecheckerboard="0"
     inkscape:document-units="mm"
     showgrid="false"
     width="530mm"
     inkscape:zoom="0.36970398"
     inkscape:cx="1532.307"
     inkscape:cy="937.23633"
     inkscape:window-width="1920"
     inkscape:window-height="1011"
     inkscape:window-x="0"
     inkscape:window-y="1112"
     inkscape:window-maximized="1"
     inkscape:current-layer="layer1" />
  <defs
     id="defs2" />
  <g
     inkscape:label="Layer 1"
     inkscape:groupmode="layer"
     id="layer1">
    <ellipse
       style="fill:#ffffff;stroke-width:0.338471"
       id="path297"
       cx="264.39325"
       cy="262.50677"
       rx="255.50073"
       ry="243.41283"
       inkscape:export-filename="/home/vvijayra/tmp_home/pbench-logo/path26.png"
       inkscape:export-xdpi="96"
       inkscape:export-ydpi="96"
       inkscape:label="round" />
    <g
       id="g589">
      <path
         class="cls-1"
         d="m 55.200319,362.95927 v -88.12001 h 36.739692 a 23.870234,23.870234 0 0 1 10.732649,2.4374 27.0226,27.0226 0 0 1 8.44152,6.451 30.873687,30.873687 0 0 1 5.51667,9.05898 27.672572,27.672572 0 0 1 1.99051,10.23706 30.621822,30.621822 0 0 1 -1.86052,10.56204 29.248755,29.248755 0 0 1 -5.27292,9.01024 25.682032,25.682032 0 0 1 -8.19776,6.32913 23.561497,23.561497 0 0 1 -10.610808,2.35614 H 66.371716 V 362.9674 Z M 66.371716,321.3773 h 25.690173 a 13.568172,13.568172 0 0 0 6.264084,-1.42181 14.193771,14.193771 0 0 0 4.809817,-3.97298 19.434173,19.434173 0 0 0 3.10359,-5.89848 22.147807,22.147807 0 0 0 1.12122,-7.07657 19.872904,19.872904 0 0 0 -4.7773,-12.99944 15.355596,15.355596 0 0 0 -5.134787,-3.87548 14.299391,14.299391 0 0 0 -6.14224,-1.36495 H 66.371716 Z"
         id="path8"
         style="fill:#1bc1c9;stroke-width:0.812464"
         inkscape:export-filename="/home/vvijayra/tmp_home/pbench-logo/path26.png"
         inkscape:export-xdpi="96"
         inkscape:export-ydpi="96" />
      <path
         class="cls-1"
         d="m 164.07073,364.19423 a 26.210134,26.210134 0 0 1 -13.81193,-3.72109 28.176301,28.176301 0 0 1 -9.80646,-9.67647 v 12.18698 h -9.69272 v -90.63052 h 10.91954 v 38.7221 a 33.733565,33.733565 0 0 1 10.05022,-10.17206 26.908855,26.908855 0 0 1 25.942,-0.9912 29.671237,29.671237 0 0 1 9.14837,7.50718 34.212919,34.212919 0 0 1 5.83351,10.79766 39.583316,39.583316 0 0 1 2.04741,12.59321 35.317871,35.317871 0 0 1 -2.36428,12.91008 33.896059,33.896059 0 0 1 -6.45097,10.6108 30.621822,30.621822 0 0 1 -9.74959,7.19845 27.989434,27.989434 0 0 1 -12.0651,2.66488 z m -2.72989,-9.43272 a 20.181641,20.181641 0 0 0 8.9371,-1.98244 22.480918,22.480918 0 0 0 7.07657,-5.33789 24.268342,24.268342 0 0 0 4.59045,-7.62906 25.422043,25.422043 0 0 0 1.62494,-9.0021 27.355711,27.355711 0 0 0 -1.62494,-9.12399 25.080807,25.080807 0 0 0 -4.34669,-7.75093 21.774073,21.774073 0 0 0 -6.70283,-5.40287 18.288597,18.288597 0 0 0 -8.62026,-2.04741 17.49238,17.49238 0 0 0 -6.58099,1.24306 24.187095,24.187095 0 0 0 -5.7685,3.29048 24.577079,24.577079 0 0 0 -4.72043,4.7773 34.529782,34.529782 0 0 0 -3.53424,5.8335 v 18.73545 a 13.397555,13.397555 0 0 0 2.66491,5.68725 21.985314,21.985314 0 0 0 4.8748,4.53357 25.430167,25.430167 0 0 0 5.95536,3.03862 18.353594,18.353594 0 0 0 6.14223,1.13746 z"
         id="path10"
         style="fill:#1bc1c9;stroke-width:0.812464"
         inkscape:export-filename="/home/vvijayra/tmp_home/pbench-logo/path26.png"
         inkscape:export-xdpi="96"
         inkscape:export-ydpi="96" />
      <path
         class="cls-1"
         d="m 236.77011,364.19423 a 32.99422,32.99422 0 0 1 -13.40566,-2.66488 31.686152,31.686152 0 0 1 -10.42395,-7.24721 33.018596,33.018596 0 0 1 -6.76784,-10.73265 35.147254,35.147254 0 0 1 -2.4374,-12.99947 34.692273,34.692273 0 0 1 2.4374,-12.91008 32.766731,32.766731 0 0 1 6.83285,-10.67578 32.417371,32.417371 0 0 1 10.48082,-7.25532 33.002346,33.002346 0 0 1 13.40566,-2.67301 31.50741,31.50741 0 0 1 30.06121,20.53913 34.627278,34.627278 0 0 1 2.29928,12.47947 c 0,0.90995 0,1.73055 -0.0651,2.47803 a 11.902618,11.902618 0 0 1 -0.18701,1.73865 h -53.70394 a 25.186428,25.186428 0 0 0 2.23427,8.81525 22.407796,22.407796 0 0 0 11.602,11.29327 20.311635,20.311635 0 0 0 8.01091,1.62494 21.457212,21.457212 0 0 0 5.8335,-0.81245 25.097057,25.097057 0 0 0 5.32979,-2.16929 18.524211,18.524211 0 0 0 4.41166,-3.35549 13.706292,13.706292 0 0 0 2.91677,-4.46856 l 9.43272,2.58365 a 24.097724,24.097724 0 0 1 -4.4117,6.58096 29.541243,29.541243 0 0 1 -6.45097,5.15103 33.367954,33.367954 0 0 1 -8.12464,3.41236 34.830391,34.830391 0 0 1 -9.31087,1.26745 z m 22.21281,-37.97465 a 23.325882,23.325882 0 0 0 -2.29113,-8.49839 23.065893,23.065893 0 0 0 -4.8748,-6.64596 21.814696,21.814696 0 0 0 -14.95749,-5.83351 21.692827,21.692827 0 0 0 -8.18965,1.55183 21.245971,21.245971 0 0 0 -6.76784,4.34669 21.936566,21.936566 0 0 0 -4.71232,6.63782 24.260217,24.260217 0 0 0 -2.16926,8.44152 z"
         id="path12"
         style="fill:#1bc1c9;stroke-width:0.812464"
         inkscape:export-filename="/home/vvijayra/tmp_home/pbench-logo/path26.png"
         inkscape:export-xdpi="96"
         inkscape:export-ydpi="96" />
      <path
         class="cls-1"
         d="m 337.67021,362.95927 h -10.92767 v -36.24408 q 0,-10.41581 -3.16049,-15.13624 -3.1605,-4.72042 -9.6196,-4.72042 a 18.361719,18.361719 0 0 0 -6.70284,1.29996 26.494497,26.494497 0 0 0 -6.32909,3.54234 24.430835,24.430835 0 0 0 -5.20791,5.33789 22.651536,22.651536 0 0 0 -3.35548,6.82471 v 39.09584 h -10.91954 v -64.78598 h 9.92834 v 13.90128 a 28.43629,28.43629 0 0 1 11.10639,-10.92767 31.686152,31.686152 0 0 1 15.82684,-4.06231 19.101062,19.101062 0 0 1 9.3027,2.04741 15.843076,15.843076 0 0 1 5.96353,5.68725 25.340796,25.340796 0 0 1 3.16049,8.62837 58.1644,58.1644 0 0 1 0.93433,10.77331 z"
         id="path14"
         style="fill:#1bc1c9;stroke-width:0.812464"
         inkscape:export-filename="/home/vvijayra/tmp_home/pbench-logo/path26.png"
         inkscape:export-xdpi="96"
         inkscape:export-ydpi="96" />
      <path
         class="cls-1"
         d="m 350.3284,330.43628 a 35.277248,35.277248 0 0 1 2.35617,-12.90194 31.613028,31.613028 0 0 1 6.70284,-10.61081 32.246751,32.246751 0 0 1 10.35894,-7.19844 32.896725,32.896725 0 0 1 13.47067,-2.67302 q 9.67647,0 16.68803,4.28171 a 27.867564,27.867564 0 0 1 10.61081,11.51262 l -10.66768,3.35548 a 17.776743,17.776743 0 0 0 -6.95469,-7.14157 19.759159,19.759159 0 0 0 -9.92833,-2.543 20.311635,20.311635 0 0 0 -15.26623,6.82471 24.755821,24.755821 0 0 0 -4.52543,7.57215 27.566952,27.566952 0 0 0 0.0568,19.11733 25.552037,25.552037 0 0 0 4.65542,7.75093 21.197223,21.197223 0 0 0 6.82471,5.15101 19.222932,19.222932 0 0 0 8.3765,1.86056 20.262888,20.262888 0 0 0 5.64665,-0.81246 21.619705,21.619705 0 0 0 5.09417,-2.16929 19.084813,19.084813 0 0 0 4.06231,-3.16863 10.70017,10.70017 0 0 0 2.48616,-3.90794 l 10.66767,3.24985 a 22.9034,22.9034 0 0 1 -4.1517,6.58099 25.998893,25.998893 0 0 1 -6.27225,5.08603 34.172296,34.172296 0 0 1 -17.24863,4.59041 32.336125,32.336125 0 0 1 -23.82961,-10.05018 33.083591,33.083591 0 0 1 -6.7597,-10.73268 34.992885,34.992885 0 0 1 -2.45367,-13.02382 z"
         id="path16"
         style="fill:#1bc1c9;stroke-width:0.812464"
         inkscape:export-filename="/home/vvijayra/tmp_home/pbench-logo/path26.png"
         inkscape:export-xdpi="96"
         inkscape:export-ydpi="96" />
      <path
         class="cls-1"
         d="m 479.64852,362.95927 h -10.90329 v -36.24408 q 0,-10.05021 -3.46922,-14.95749 -3.46923,-4.90728 -10.18017,-4.87479 a 17.061774,17.061774 0 0 0 -6.451,1.29993 23.780863,23.780863 0 0 0 -6.02036,3.54237 25.36517,25.36517 0 0 0 -4.96415,5.33789 23.691492,23.691492 0 0 0 -3.24988,6.82471 v 39.09584 h -10.98451 v -90.63052 h 10.91953 v 39.72144 a 28.525661,28.525661 0 0 1 10.42392,-11.04952 27.347586,27.347586 0 0 1 14.3969,-3.97298 20.433505,20.433505 0 0 1 9.68457,2.11242 16.858657,16.858657 0 0 1 6.3291,5.68725 25.064558,25.064558 0 0 1 3.41235,8.62026 52.574636,52.574636 0 0 1 1.05621,10.74079 z"
         id="path18"
         style="fill:#1bc1c9;stroke-width:0.812464"
         inkscape:export-filename="/home/vvijayra/tmp_home/pbench-logo/path26.png"
         inkscape:export-xdpi="96"
         inkscape:export-ydpi="96" />
      <path
         class="cls-2"
         d="m 320.53529,153.43258 a 4.5741801,4.5741801 0 0 0 -3.81858,2.0799 c -8.30339,11.90263 -18.21548,26.21824 -27.77007,40.07893 v 0 l -0.2518,0.3656 -1.21058,1.75493 -0.51183,0.73934 -1.16995,1.69805 -0.38188,0.55249 -1.44619,2.10428 -0.21925,0.31684 -1.32432,1.92557 -0.56062,0.81245 -0.9912,1.43806 -0.48748,0.70685 -1.3487,1.9743 -0.10563,0.14617 -1.47058,2.14491 c -0.11362,0.17073 -0.23552,0.34125 -0.34936,0.51999 -0.38998,0.5606 -0.77183,1.11305 -1.14556,1.66554 l -0.3575,0.52811 -1.09684,1.62494 -0.38184,0.56059 -1.32432,1.93367 -0.40623,0.60122 -0.95871,1.40557 -0.44685,0.64998 c -0.33312,0.48748 -0.65809,0.97496 -0.99121,1.4543 l -0.325,0.48748 -1.28369,1.86867 -0.2518,0.38187 -0.99934,1.46244 c -0.1299,0.20298 -0.26009,0.39809 -0.39809,0.59308 l -0.81249,1.25121 -0.38998,0.56873 -1.15368,1.70616 -0.0814,0.12191 -1.03997,1.54369 -0.34936,0.51186 -0.76372,1.13743 c -0.11362,0.16244 -0.22754,0.33311 -0.33311,0.50372 l -0.95872,1.42184 -0.0731,0.11362 -0.96682,1.4462 -0.30873,0.45496 c -0.21925,0.34125 -0.44689,0.67436 -0.66623,0.99934 l -0.29264,0.43871 -0.68247,1.03997 c -0.0651,0.0973 -0.13818,0.20297 -0.19499,0.30062 l -0.81249,1.23493 -0.19499,0.29233 -0.57684,0.8856 -0.24381,0.36561 q -0.26808,0.4306 -0.53625,0.81248 c -0.0488,0.0814 -0.11361,0.17073 -0.16244,0.26009 l -0.64184,0.9831 -0.13819,0.22754 -0.43871,0.68247 -0.18701,0.29233 -0.3656,0.58498 -0.13819,0.22754 c -0.15445,0.2518 -0.30873,0.48748 -0.43871,0.70685 a 0.60934907,0.60934907 0 0 0 -0.0568,0.0976 l -0.31687,0.52 -0.0973,0.17872 c -0.0814,0.12989 -0.15446,0.2518 -0.21925,0.37374 l -0.0814,0.13818 -0.21925,0.40623 a 19.044189,19.044189 0 1 0 33.85541,17.32177 c 0.0405,-0.0894 0.0973,-0.18701 0.14617,-0.30062 v -0.0811 l 0.15446,-0.33311 v -0.0488 l 0.1867,-0.43871 a 0.81246542,0.81246542 0 0 0 0.0568,-0.12191 l 0.17871,-0.42247 0.0488,-0.10564 0.23552,-0.56873 0.0568,-0.14617 c 0.0731,-0.17073 0.14617,-0.34125 0.21925,-0.5281 l 0.0568,-0.14617 0.28435,-0.69058 0.0651,-0.16244 0.24382,-0.6256 a 2.1124101,2.1124101 0 0 0 0.0814,-0.20328 c 0.10564,-0.26808 0.21925,-0.54435 0.32498,-0.81246 v -0.0651 c 0.10563,-0.26807 0.21127,-0.54435 0.32501,-0.81245 l 0.0893,-0.23553 c 0.24382,-0.61746 0.48748,-1.26744 0.74748,-1.94991 l 0.10564,-0.2601 0.34935,-0.92622 0.0568,-0.13818 c 0.12989,-0.3575 0.27637,-0.7231 0.41437,-1.09684 0,-0.0976 0.0731,-0.19499 0.11361,-0.30063 l 0.34936,-0.92622 0.0973,-0.26009 c 0.14617,-0.38999 0.29234,-0.81249 0.44689,-1.18623 0,-0.0814 0.0568,-0.17073 0.0894,-0.2518 l 0.38998,-1.03993 0.12191,-0.32501 c 0.16244,-0.42247 0.31684,-0.81245 0.47934,-1.2918 l 0.0651,-0.15445 c 0.13818,-0.38999 0.29264,-0.81249 0.43872,-1.18623 l 0.12989,-0.35746 c 0.16244,-0.43875 0.32497,-0.8856 0.49558,-1.33246 l 0.10564,-0.29233 c 0.14616,-0.39812 0.29264,-0.81246 0.44685,-1.20244 l 0.12191,-0.34936 c 0.16244,-0.4225 0.31684,-0.81248 0.4712,-1.27558 0,-0.10563 0.0814,-0.20298 0.11362,-0.30873 0.17073,-0.47124 0.34936,-0.94247 0.52811,-1.42182 l 0.11361,-0.325 c 0.17074,-0.4631 0.34122,-0.93433 0.51997,-1.40554 l 0.0651,-0.18701 c 0.19499,-0.5281 0.38998,-1.07245 0.59308,-1.62494 l 0.10563,-0.29233 c 0.16245,-0.43872 0.31687,-0.87746 0.47935,-1.32432 l 0.15445,-0.41433 c 0.195,-0.52 0.38188,-1.04811 0.57687,-1.57621 l 0.14617,-0.40623 c 0.16244,-0.43871 0.31687,-0.88557 0.47937,-1.32431 l 0.16244,-0.43872 c 0.195,-0.54435 0.39813,-1.09684 0.59312,-1.62494 0.0488,-0.11362 0.0894,-0.23553 0.12989,-0.3575 q 0.26009,-0.69057 0.51186,-1.41367 l 0.17073,-0.45499 c 0.41437,-1.16181 0.81249,-2.33176 1.27559,-3.51796 l 0.14616,-0.43061 c 0.43875,-1.20247 0.87747,-2.43739 1.32432,-3.66421 l 0.13818,-0.36564 c 0.45499,-1.27555 0.91809,-2.55113 1.38122,-3.84296 l 0.0894,-0.2518 0.63371,-1.77117 0.0973,-0.26009 1.42184,-3.96484 0.0973,-0.28435 0.67434,-1.87678 0.17871,-0.49561 0.60122,-1.68181 0.0731,-0.20298 1.4137,-3.9567 0.21127,-0.58498 0.60935,-1.7143 0.0568,-0.14617 v -0.0405 0 c 5.1429,-14.41314 10.31832,-29.01314 14.69749,-41.43574 a 4.7691718,4.7691718 0 0 0 -4.49294,-6.38596 z"
         id="path20"
         style="fill:#ff3f12;stroke-width:0.812464"
         inkscape:export-filename="/home/vvijayra/tmp_home/pbench-logo/path26.png"
         inkscape:export-xdpi="96"
         inkscape:export-ydpi="96" />
      <path
         class="cls-3"
         d="M 399.49883,165.96892 A 200.86583,200.86583 0 0 0 139.50987,163.5965 l 54.66269,54.66268 a 123.17788,123.17788 0 0 1 73.93435,-24.37396 q 4.15983,0 8.26276,0.26807 c 8.24652,-11.95947 18.50797,-26.73821 31.18243,-45.01056 a 15.664333,15.664333 0 0 1 12.99947,-6.86534 16.151812,16.151812 0 0 1 13.17818,6.81657 15.696832,15.696832 0 0 1 1.94178,14.44564 c -4.82603,13.62506 -9.92019,28.10318 -14.90873,41.97197 a 123.38912,123.38912 0 0 1 24.19522,14.98998 z"
         id="path22"
         style="fill:#a5a5a5;stroke-width:0.812464"
         inkscape:export-filename="/home/vvijayra/tmp_home/pbench-logo/path26.png"
         inkscape:export-xdpi="96"
         inkscape:export-ydpi="96" />
      <path
         class="cls-4"
         d="m 75.105717,262.03482 h 17.524872 a 36.39845,36.39845 0 0 1 16.249321,3.71298 39.583316,39.583316 0 0 1 10.11519,7.13344 v -0.85308 a 12.471344,12.471344 0 0 1 12.47137,-12.47136 h 10.92765 a 12.471344,12.471344 0 0 1 11.92702,8.77462 123.74661,123.74661 0 0 1 24.10583,-36.1222 l -54.32145,-54.32143 a 200.78458,200.78458 0 0 0 -48.999803,84.14703 z"
         id="path24"
         style="fill:#d8d8d8;stroke-width:0.812464"
         inkscape:export-filename="/home/vvijayra/tmp_home/pbench-logo/path26.png"
         inkscape:export-xdpi="96"
         inkscape:export-ydpi="96" />
      <path
         class="cls-5"
         d="m 414.65131,180.52018 -54.36206,54.32954 a 123.16163,123.16163 0 0 1 27.34757,49.56041 42.540689,42.540689 0 0 1 19.49917,5.9716 43.686266,43.686266 0 0 1 4.54168,3.20112 v -21.53034 a 12.479469,12.479469 0 0 1 12.47947,-12.47133 h 10.91953 a 12.471344,12.471344 0 0 1 12.47137,12.47133 v 14.12065 a 40.379533,40.379533 0 0 1 12.34945,-1.90115 38.08838,38.08838 0 0 1 6.41848,0.5281 200.28898,200.28898 0 0 0 -51.66466,-104.27993 z"
         id="path26"
         style="fill:#686868;stroke-width:0.812464"
         inkscape:export-filename="/home/vvijayra/tmp_home/pbench-logo/path26.png"
         inkscape:export-xdpi="96"
         inkscape:export-ydpi="96" />
    </g>
  </g>
</svg>
