<svg xmlns="http://www.w3.org/2000/svg" viewBox="0 0 522.43 304.21"><defs><style>.cls-1{fill:#fff;}</style></defs><title>Asset 6</title><g id="Layer_2" data-name="Layer 2"><g id="Layer_1-2" data-name="Layer 1"><path class="cls-1" d="M0,302.68V194.22H45.22a29.51,29.51,0,0,1,13.21,3,33.32,33.32,0,0,1,10.39,8,37.9,37.9,0,0,1,6.8,11.15,34.17,34.17,0,0,1,2.44,12.6,37.5,37.5,0,0,1-2.29,13A36,36,0,0,1,69.28,253a31.61,31.61,0,0,1-10.09,7.79,29.15,29.15,0,0,1-13.06,2.9H13.75v38.95Zm13.75-51.17H45.37a16.58,16.58,0,0,0,7.71-1.76A17.41,17.41,0,0,0,59,244.86a23.94,23.94,0,0,0,3.81-7.25,27.26,27.26,0,0,0,1.38-8.71,24.32,24.32,0,0,0-5.88-16A18.9,18.9,0,0,0,52,208.13a17.6,17.6,0,0,0-7.56-1.68H13.75Z"/><path class="cls-1" d="M134,304.21a32.39,32.39,0,0,1-17-4.58,34.79,34.79,0,0,1-12.07-11.92v15H93V191.17h13.44v47.66a41.58,41.58,0,0,1,12.38-12.53,33.17,33.17,0,0,1,31.92-1.22A36.81,36.81,0,0,1,162,234.32a41.71,41.71,0,0,1,7.18,13.29,48.82,48.82,0,0,1,2.52,15.51A43.68,43.68,0,0,1,168.8,279a41.75,41.75,0,0,1-8,13.06,37.58,37.58,0,0,1-12,8.86A34.4,34.4,0,0,1,134,304.21Zm-3.36-11.61a24.87,24.87,0,0,0,11-2.44,27.63,27.63,0,0,0,8.7-6.57A29.9,29.9,0,0,0,156,274.2a31.28,31.28,0,0,0,2-11.08A33.67,33.67,0,0,0,156,251.89a30.7,30.7,0,0,0-5.34-9.55,26.89,26.89,0,0,0-8.25-6.64,22.55,22.55,0,0,0-10.62-2.52,21.61,21.61,0,0,0-8.1,1.53,29.93,29.93,0,0,0-7.1,4,30.26,30.26,0,0,0-5.8,5.89,42.55,42.55,0,0,0-4.36,7.18v23.06a16.51,16.51,0,0,0,3.29,7,26.74,26.74,0,0,0,5.95,5.57,31,31,0,0,0,7.34,3.75A22.75,22.75,0,0,0,130.61,292.6Z"/><path class="cls-1" d="M223.48,304.21A40.53,40.53,0,0,1,207,300.93,39.1,39.1,0,0,1,194.15,292a40.72,40.72,0,0,1-8.32-13.21,43.07,43.07,0,0,1-3-16,42.45,42.45,0,0,1,3-15.88,39.74,39.74,0,0,1,21.31-22.08,40.61,40.61,0,0,1,16.5-3.28,39.33,39.33,0,0,1,16.42,3.36,38.93,38.93,0,0,1,12.6,8.94,39.35,39.35,0,0,1,8,13,42.83,42.83,0,0,1,2.83,15.35c0,1.13,0,2.14-.08,3.06a16.41,16.41,0,0,1-.23,2.14H197.06a30.68,30.68,0,0,0,2.75,10.84,27.77,27.77,0,0,0,5.95,8.4,27.38,27.38,0,0,0,8.33,5.5,24.74,24.74,0,0,0,9.85,2,26.31,26.31,0,0,0,7.18-1,30.7,30.7,0,0,0,6.57-2.68,22.7,22.7,0,0,0,5.42-4.12,16.71,16.71,0,0,0,3.59-5.5l11.61,3.21a29.21,29.21,0,0,1-5.42,8.09,35.78,35.78,0,0,1-7.94,6.34,40.47,40.47,0,0,1-10,4.2A42.49,42.49,0,0,1,223.48,304.21Zm27.35-46.74A28.83,28.83,0,0,0,248,247a28.13,28.13,0,0,0-5.95-8.17,27.31,27.31,0,0,0-28.49-5.27,26,26,0,0,0-8.33,5.35,27.12,27.12,0,0,0-5.81,8.17,30.3,30.3,0,0,0-2.67,10.39Z"/><path class="cls-1" d="M347.68,302.68H334.23v-44.6q0-12.84-3.89-18.64t-11.84-5.8a22.6,22.6,0,0,0-8.25,1.6,32.72,32.72,0,0,0-7.79,4.35,30.8,30.8,0,0,0-6.42,6.57,28.26,28.26,0,0,0-4.12,8.41v48.11H278.48V222.94H290.7v17.11a35,35,0,0,1,13.67-13.44,39,39,0,0,1,19.48-5,23.51,23.51,0,0,1,11.45,2.52,19.42,19.42,0,0,1,7.34,7,31.21,31.21,0,0,1,3.89,10.61A72.62,72.62,0,0,1,347.68,255Z"/><path class="cls-1" d="M363.26,262.66a43.51,43.51,0,0,1,2.9-15.89,39,39,0,0,1,8.25-13.06,39.85,39.85,0,0,1,12.75-8.86,40.49,40.49,0,0,1,16.58-3.28q11.91,0,20.54,5.27A34.2,34.2,0,0,1,437.35,241l-13.14,4.12a21.92,21.92,0,0,0-8.56-8.78,24.22,24.22,0,0,0-12.22-3.13,25,25,0,0,0-18.79,8.4,30.47,30.47,0,0,0-5.57,9.32,34.05,34.05,0,0,0,.07,23.52,31.5,31.5,0,0,0,5.73,9.55,26.23,26.23,0,0,0,8.4,6.34,23.68,23.68,0,0,0,10.32,2.29,25,25,0,0,0,7-1,26.71,26.71,0,0,0,6.26-2.67,23.49,23.49,0,0,0,5-3.9,13.17,13.17,0,0,0,3.06-4.81l13.14,4a28.22,28.22,0,0,1-5.12,8.1,32.1,32.1,0,0,1-7.71,6.26,42.4,42.4,0,0,1-21.24,5.65,39.8,39.8,0,0,1-29.33-12.37,40.66,40.66,0,0,1-8.32-13.22A43.06,43.06,0,0,1,363.26,262.66Z"/><path class="cls-1" d="M522.43,302.68H509v-44.6q0-12.37-4.28-18.41t-12.52-6a21.09,21.09,0,0,0-7.95,1.6,29.54,29.54,0,0,0-7.41,4.35,31.71,31.71,0,0,0-6.11,6.57,29.34,29.34,0,0,0-4.05,8.41v48.11H453.23V191.17h13.44v48.88a35.18,35.18,0,0,1,12.84-13.59,33.61,33.61,0,0,1,17.72-4.89,25.13,25.13,0,0,1,11.91,2.6,20.74,20.74,0,0,1,7.79,7,30.59,30.59,0,0,1,4.2,10.62,63.92,63.92,0,0,1,1.3,13.21Z"/><path class="cls-1" d="M326.59,44.8a5.62,5.62,0,0,0-4.7,2.55C311.67,62,299.47,79.63,287.71,96.68h0l-.31.45-1.49,2.16-.63.91-1.44,2.09-.47.68-1.78,2.59-.27.39-1.64,2.38-.68,1-1.22,1.78-.6.86-1.66,2.43-.13.19-1.81,2.64-.44.63-1.41,2.06-.44.64-1.34,2c-.16.23-.32.45-.47.68l-1.63,2.38-.5.74-1.18,1.73-.55.81-1.22,1.78-.41.6-1.57,2.31-.32.47-1.22,1.8-.49.72-1.05,1.54c-.15.24-.31.47-.47.7l-1.42,2.11-.1.14-1.28,1.9-.43.63-.94,1.4-.42.62-1.17,1.76-.09.13-1.2,1.78c-.12.19-.24.38-.37.56l-.82,1.23-.36.55-.85,1.28-.24.36c-.34.52-.68,1-1,1.53l-.24.35-.71,1.09-.3.46c-.23.34-.44.68-.66,1l-.21.32-.78,1.22-.18.27-.53.85c-.08.12-.16.24-.23.36s-.31.48-.45.71l-.18.29c-.19.3-.37.59-.53.87l-.08.12c-.13.23-.26.44-.38.64l-.13.21c-.09.17-.18.32-.26.46l-.1.17-.27.5A23.44,23.44,0,1,0,283.68,186c.05-.11.11-.24.18-.37l.05-.11c.06-.12.12-.26.18-.4l0-.07q.12-.24.24-.54s.05-.09.07-.14l.22-.53.05-.12c.1-.22.2-.46.3-.7l.07-.18.27-.65.07-.18c.11-.27.23-.56.34-.85l.09-.21c.09-.25.2-.5.3-.76,0-.09.07-.17.1-.26l.4-1,0-.08.4-1,.11-.29.92-2.39.12-.32c.15-.38.29-.76.44-1.15l.07-.17q.24-.66.51-1.35c0-.12.09-.24.14-.36.14-.38.28-.75.42-1.14l.13-.32.55-1.47c0-.1.07-.2.11-.3q.24-.63.48-1.29l.15-.39.59-1.59.07-.2c.18-.48.36-1,.55-1.46l.16-.44c.2-.54.4-1.08.61-1.63l.13-.36.54-1.49.16-.42c.19-.52.39-1.05.58-1.58.05-.12.09-.25.14-.38.21-.57.43-1.16.64-1.75l.15-.39.63-1.74.09-.22c.24-.66.48-1.33.73-2l.13-.36.59-1.62.19-.52c.23-.64.47-1.29.71-1.94l.18-.5c.19-.54.39-1.08.59-1.63l.2-.53c.24-.68.49-1.35.73-2,.06-.15.11-.3.16-.44l.63-1.75.21-.56c.51-1.42,1-2.87,1.56-4.33l.19-.52c.54-1.49,1.08-3,1.63-4.51l.16-.46c.57-1.56,1.13-3.14,1.71-4.73l.11-.31.78-2.17.12-.33c.58-1.61,1.16-3.24,1.74-4.87l.13-.36c.28-.76.55-1.53.83-2.3.07-.21.15-.41.22-.62.24-.69.49-1.37.74-2.06l.09-.26,1.74-4.87c.09-.24.17-.48.26-.71l.75-2.11.07-.19v-.05h0c6.33-17.74,12.7-35.71,18.09-51A5.87,5.87,0,0,0,326.59,44.8Z"/><path class="cls-1" d="M423.78,60.22a247.24,247.24,0,0,0-320-2.92l67.28,67.28a151.63,151.63,0,0,1,91-30c3.41,0,6.81.12,10.18.34C282.38,80.19,295,62,310.61,39.51a19.26,19.26,0,0,1,16-8.45,19.88,19.88,0,0,1,16.22,8.39,19.28,19.28,0,0,1,2.38,17.78C339.28,74,333,91.83,326.87,108.89a152.24,152.24,0,0,1,29.79,18.45Z"/><path class="cls-1" d="M24.5,178.47H46.07a44.76,44.76,0,0,1,20,4.56,48.72,48.72,0,0,1,12.45,8.78v-1a15.36,15.36,0,0,1,15.36-15.36h13.44A15.37,15.37,0,0,1,122,186.22a152.16,152.16,0,0,1,29.67-44.47L84.81,74.89A247.1,247.1,0,0,0,24.5,178.47Z"/><path class="cls-1" d="M442.44,78.14l-66.92,66.91A151.36,151.36,0,0,1,409.18,206a52.49,52.49,0,0,1,24,7.36,51.31,51.31,0,0,1,5.59,3.94v-26.5a15.36,15.36,0,0,1,15.36-15.36h13.44a15.36,15.36,0,0,1,15.36,15.36v17.37a49.58,49.58,0,0,1,15.19-2.33,47,47,0,0,1,7.91.65A246.53,246.53,0,0,0,442.44,78.14Z"/></g></g></svg>